<svg width="32" height="34" viewBox="0 0 32 34" fill="none" xmlns="http://www.w3.org/2000/svg" xmlns:xlink="http://www.w3.org/1999/xlink">
<path d="M21.333,17.491L10.667,17.491C10.12,17.491 9.667,17.038 9.667,16.491C9.667,15.945 10.12,15.491 10.667,15.491L21.333,15.491C21.88,15.491 22.333,15.945 22.333,16.491C22.333,17.038 21.88,17.491 21.333,17.491Z" fill="#292D32"/>
<path d="M16,22.825C15.453,22.825 15,22.372 15,21.825L15,11.158C15,10.612 15.453,10.158 16,10.158C16.547,10.158 17,10.612 17,11.158L17,21.825C17,22.372 16.547,22.825 16,22.825Z" fill="#292D32"/>
<path d="M20,30.825L12,30.825C4.76,30.825 1.667,27.732 1.667,20.492L1.667,12.492C1.667,5.252 4.76,2.158 12,2.158L20,2.158C27.24,2.158 30.333,5.252 30.333,12.492L30.333,20.492C30.333,27.732 27.24,30.825 20,30.825ZM12,4.158C5.853,4.158 3.667,6.345 3.667,12.492L3.667,20.492C3.667,26.638 5.853,28.825 12,28.825L20,28.825C26.147,28.825 28.333,26.638 28.333,20.492L28.333,12.492C28.333,6.345 26.147,4.158 20,4.158L12,4.158Z" fill="#292D32"/>
</svg>
