<svg width="48" height="48" viewBox="0 0 48 48" fill="none" xmlns="http://www.w3.org/2000/svg" xmlns:xlink="http://www.w3.org/1999/xlink">
<path d="M30,45.499L18,45.499C7.14,45.499 2.5,40.859 2.5,29.999L2.5,17.999C2.5,7.139 7.14,2.499 18,2.499L30,2.499C40.86,2.499 45.5,7.139 45.5,17.999L45.5,29.999C45.5,40.859 40.86,45.499 30,45.499ZM18,5.499C8.78,5.499 5.5,8.779 5.5,17.999L5.5,29.999C5.5,39.219 8.78,42.499 18,42.499L30,42.499C39.22,42.499 42.5,39.219 42.5,29.999L42.5,17.999C42.5,8.779 39.22,5.499 30,5.499L18,5.499Z" fill="#292D32"/>
<path d="M24,29.819C23.62,29.819 23.24,29.679 22.94,29.379L15.88,22.319C15.3,21.739 15.3,20.779 15.88,20.199C16.46,19.619 17.42,19.619 18,20.199L24,26.199L30,20.199C30.58,19.619 31.54,19.619 32.12,20.199C32.7,20.779 32.7,21.739 32.12,22.319L25.06,29.379C24.76,29.679 24.38,29.819 24,29.819Z" fill="#292D32"/>
</svg>
