<svg width="48" height="48" viewBox="0 0 48 48" fill="none" xmlns="http://www.w3.org/2000/svg" xmlns:xlink="http://www.w3.org/1999/xlink">
<path d="M30,45.5L18,45.5C7.14,45.5 2.5,40.86 2.5,30L2.5,18C2.5,7.14 7.14,2.5 18,2.5L30,2.5C40.86,2.5 45.5,7.14 45.5,18L45.5,30C45.5,40.86 40.86,45.5 30,45.5ZM18,5.5C8.78,5.5 5.5,8.78 5.5,18L5.5,30C5.5,39.22 8.78,42.5 18,42.5L30,42.5C39.22,42.5 42.5,39.22 42.5,30L42.5,18C42.5,8.78 39.22,5.5 30,5.5L18,5.5Z" fill="#292D32"/>
<path d="M24,29.82C23.62,29.82 23.24,29.68 22.94,29.38L15.88,22.32C15.3,21.74 15.3,20.78 15.88,20.2C16.46,19.62 17.42,19.62 18,20.2L24,26.2L30,20.2C30.58,19.62 31.54,19.62 32.12,20.2C32.7,20.78 32.7,21.74 32.12,22.32L25.06,29.38C24.76,29.68 24.38,29.82 24,29.82Z" fill="#292D32"/>
</svg>
