<svg width="48" height="48" viewBox="0 0 48 48" fill="none" xmlns="http://www.w3.org/2000/svg" xmlns:xlink="http://www.w3.org/1999/xlink">
<path d="M30,45.5L18,45.5C7.14,45.5 2.5,40.86 2.5,30L2.5,18C2.5,7.14 7.14,2.5 18,2.5L30,2.5C40.86,2.5 45.5,7.14 45.5,18L45.5,30C45.5,40.86 40.86,45.5 30,45.5ZM18,5.5C8.78,5.5 5.5,8.78 5.5,18L5.5,30C5.5,39.22 8.78,42.5 18,42.5L30,42.5C39.22,42.5 42.5,39.22 42.5,30L42.5,18C42.5,8.78 39.22,5.5 30,5.5L18,5.5Z" fill="#292D32"/>
<path d="M31.06,28.42C30.68,28.42 30.3,28.28 30,27.98L24,21.98L18,27.98C17.42,28.56 16.46,28.56 15.88,27.98C15.3,27.4 15.3,26.44 15.88,25.86L22.94,18.8C23.52,18.22 24.48,18.22 25.06,18.8L32.12,25.86C32.7,26.44 32.7,27.4 32.12,27.98C31.82,28.28 31.44,28.42 31.06,28.42Z" fill="#292D32"/>
</svg>
