<svg width="48" height="48" viewBox="0 0 48 48" fill="none" xmlns="http://www.w3.org/2000/svg" xmlns:xlink="http://www.w3.org/1999/xlink">
<path d="M30,45.499L18,45.499C7.14,45.499 2.5,40.859 2.5,29.999L2.5,17.999C2.5,7.139 7.14,2.499 18,2.499L30,2.499C40.86,2.499 45.5,7.139 45.5,17.999L45.5,29.999C45.5,40.859 40.86,45.499 30,45.499ZM18,5.499C8.78,5.499 5.5,8.779 5.5,17.999L5.5,29.999C5.5,39.219 8.78,42.499 18,42.499L30,42.499C39.22,42.499 42.5,39.219 42.5,29.999L42.5,17.999C42.5,8.779 39.22,5.499 30,5.499L18,5.499Z" fill="#292D32"/>
<path d="M31.06,28.419C30.68,28.419 30.3,28.279 30,27.979L24,21.979L18,27.979C17.42,28.559 16.46,28.559 15.88,27.979C15.3,27.399 15.3,26.439 15.88,25.859L22.94,18.799C23.52,18.219 24.48,18.219 25.06,18.799L32.12,25.859C32.7,26.439 32.7,27.399 32.12,27.979C31.82,28.279 31.44,28.419 31.06,28.419Z" fill="#292D32"/>
</svg>
