<svg width="40" height="40" viewBox="0 0 40 40" fill="none" xmlns="http://www.w3.org/2000/svg" xmlns:xlink="http://www.w3.org/1999/xlink">
<path d="M20.333,28.967C19.166,28.967 17.983,28.517 17.1,27.634C16.233,26.767 15.75,25.617 15.75,24.4C15.75,23.184 16.233,22.017 17.1,21.167L19.45,18.817C19.933,18.334 20.733,18.334 21.216,18.817C21.7,19.3 21.7,20.1 21.216,20.584L18.866,22.934C18.466,23.334 18.25,23.85 18.25,24.4C18.25,24.95 18.466,25.484 18.866,25.867C19.683,26.684 21,26.684 21.816,25.867L25.516,22.167C27.633,20.05 27.633,16.617 25.516,14.5C23.4,12.384 19.966,12.384 17.85,14.5L13.816,18.534C12.966,19.384 12.5,20.5 12.5,21.684C12.5,22.867 12.966,24 13.816,24.834C14.3,25.317 14.3,26.117 13.816,26.6C13.333,27.084 12.533,27.084 12.05,26.6C10.733,25.284 10.016,23.534 10.016,21.667C10.016,19.8 10.733,18.05 12.05,16.734L16.083,12.7C19.166,9.617 24.2,9.617 27.283,12.7C30.366,15.784 30.366,20.817 27.283,23.9L23.583,27.6C22.683,28.517 21.516,28.967 20.333,28.967Z" fill="#292D32"/>
<path d="M20,37.916C10.117,37.916 2.083,29.883 2.083,20C2.083,10.116 10.117,2.083 20,2.083C29.883,2.083 37.917,10.116 37.917,20C37.917,29.883 29.883,37.916 20,37.916ZM20,4.583C11.5,4.583 4.583,11.5 4.583,20C4.583,28.5 11.5,35.416 20,35.416C28.5,35.416 35.417,28.5 35.417,20C35.417,11.5 28.5,4.583 20,4.583Z" fill="#292D32"/>
</svg>
