<svg width="36" height="28" viewBox="0 0 36 28" fill="none" xmlns="http://www.w3.org/2000/svg" xmlns:xlink="http://www.w3.org/1999/xlink">
<path d="M12,6.375C11.385,6.375 10.875,5.998 10.875,5.543L10.875,2.217C10.875,1.763 11.385,1.386 12,1.386C12.615,1.386 13.125,1.763 13.125,2.217L13.125,5.543C13.125,5.998 12.615,6.375 12,6.375Z" fill="#595454"/>
<path d="M24,6.375C23.385,6.375 22.875,5.998 22.875,5.543L22.875,2.217C22.875,1.763 23.385,1.386 24,1.386C24.615,1.386 25.125,1.763 25.125,2.217L25.125,5.543C25.125,5.998 24.615,6.375 24,6.375Z" fill="#595454"/>
<path d="M12.75,16.076C12.555,16.076 12.36,16.043 12.18,15.987C11.985,15.932 11.835,15.854 11.685,15.754C11.415,15.544 11.25,15.267 11.25,14.967C11.25,14.823 11.295,14.679 11.37,14.546C11.445,14.413 11.55,14.291 11.685,14.18C11.835,14.08 11.985,14.003 12.18,13.947C12.72,13.781 13.395,13.87 13.815,14.18C14.085,14.391 14.25,14.679 14.25,14.967C14.25,15.034 14.235,15.111 14.22,15.189C14.205,15.256 14.175,15.322 14.13,15.389C14.1,15.455 14.055,15.522 13.995,15.588C13.95,15.644 13.875,15.699 13.815,15.754C13.53,15.954 13.14,16.076 12.75,16.076Z" fill="#595454"/>
<path d="M18,16.076C17.805,16.076 17.61,16.043 17.43,15.987C17.235,15.932 17.085,15.854 16.935,15.755C16.665,15.544 16.5,15.267 16.5,14.967C16.5,14.823 16.545,14.679 16.62,14.546C16.695,14.413 16.8,14.291 16.935,14.18C17.085,14.08 17.235,14.003 17.43,13.947C17.97,13.77 18.645,13.87 19.065,14.18C19.335,14.391 19.5,14.679 19.5,14.967C19.5,15.034 19.485,15.111 19.47,15.189C19.455,15.256 19.425,15.322 19.38,15.389C19.35,15.455 19.305,15.522 19.245,15.588C19.2,15.644 19.125,15.699 19.065,15.755C18.78,15.954 18.39,16.076 18,16.076Z" fill="#595454"/>
<path d="M23.25,16.076C23.055,16.076 22.86,16.043 22.68,15.987C22.485,15.932 22.335,15.854 22.185,15.755C22.125,15.699 22.065,15.644 22.005,15.588C21.945,15.522 21.9,15.455 21.87,15.389C21.825,15.322 21.795,15.256 21.78,15.189C21.765,15.111 21.75,15.034 21.75,14.967C21.75,14.679 21.915,14.391 22.185,14.18C22.335,14.08 22.485,14.003 22.68,13.947C23.235,13.77 23.895,13.87 24.315,14.18C24.585,14.391 24.75,14.679 24.75,14.967C24.75,15.034 24.735,15.111 24.72,15.189C24.705,15.256 24.675,15.322 24.63,15.389C24.6,15.455 24.555,15.522 24.495,15.588C24.45,15.644 24.375,15.699 24.315,15.755C24.03,15.954 23.64,16.076 23.25,16.076Z" fill="#595454"/>
<path d="M12.75,19.956C12.555,19.956 12.36,19.923 12.18,19.868C12,19.812 11.835,19.735 11.685,19.635C11.415,19.424 11.25,19.136 11.25,18.848C11.25,18.704 11.295,18.559 11.37,18.426C11.445,18.282 11.55,18.16 11.685,18.061C12.24,17.65 13.26,17.65 13.815,18.061C14.085,18.271 14.25,18.559 14.25,18.848C14.25,19.136 14.085,19.424 13.815,19.635C13.53,19.834 13.14,19.956 12.75,19.956Z" fill="#595454"/>
<path d="M18,19.956C17.61,19.956 17.22,19.834 16.935,19.635C16.665,19.424 16.5,19.136 16.5,18.848C16.5,18.704 16.545,18.559 16.62,18.426C16.695,18.282 16.8,18.16 16.935,18.061C17.49,17.65 18.51,17.65 19.065,18.061C19.2,18.16 19.305,18.282 19.38,18.426C19.455,18.559 19.5,18.704 19.5,18.848C19.5,19.136 19.335,19.424 19.065,19.635C18.78,19.834 18.39,19.956 18,19.956Z" fill="#595454"/>
<path d="M23.25,19.957C22.86,19.957 22.47,19.835 22.185,19.635C22.05,19.535 21.945,19.413 21.87,19.269C21.795,19.136 21.75,18.992 21.75,18.848C21.75,18.704 21.795,18.56 21.87,18.427C21.945,18.283 22.05,18.161 22.185,18.061C22.53,17.806 23.055,17.684 23.535,17.761C23.64,17.773 23.73,17.795 23.82,17.828C23.91,17.85 24,17.883 24.09,17.928C24.165,17.961 24.24,18.016 24.315,18.061C24.585,18.271 24.75,18.56 24.75,18.848C24.75,19.136 24.585,19.424 24.315,19.635C24.03,19.835 23.64,19.957 23.25,19.957Z" fill="#595454"/>
<path d="M30.75,10.91L5.25,10.91C4.635,10.91 4.125,10.533 4.125,10.078C4.125,9.624 4.635,9.247 5.25,9.247L30.75,9.247C31.365,9.247 31.875,9.624 31.875,10.078C31.875,10.533 31.365,10.91 30.75,10.91Z" fill="#595454"/>
<path d="M24,25.223L12,25.223C6.525,25.223 3.375,22.894 3.375,18.848L3.375,9.424C3.375,5.377 6.525,3.049 12,3.049L24,3.049C29.475,3.049 32.625,5.377 32.625,9.424L32.625,18.848C32.625,22.894 29.475,25.223 24,25.223ZM12,4.712C7.71,4.712 5.625,6.253 5.625,9.424L5.625,18.848C5.625,22.019 7.71,23.56 12,23.56L24,23.56C28.29,23.56 30.375,22.019 30.375,18.848L30.375,9.424C30.375,6.253 28.29,4.712 24,4.712L12,4.712Z" fill="#595454"/>
</svg>
