<svg width="40" height="40" viewBox="0 0 40 40" fill="none" xmlns="http://www.w3.org/2000/svg" xmlns:xlink="http://www.w3.org/1999/xlink">
<path d="M15.283,25.966C14.967,25.966 14.65,25.85 14.4,25.6C13.917,25.116 13.917,24.316 14.4,23.833L23.833,14.4C24.317,13.916 25.117,13.916 25.6,14.4C26.083,14.883 26.083,15.683 25.6,16.166L16.167,25.6C15.933,25.85 15.6,25.966 15.283,25.966Z" fill="#898C90"/>
<path d="M24.717,25.966C24.4,25.966 24.083,25.85 23.833,25.6L14.4,16.166C13.917,15.683 13.917,14.883 14.4,14.4C14.883,13.916 15.683,13.916 16.167,14.4L25.6,23.833C26.083,24.316 26.083,25.116 25.6,25.6C25.35,25.85 25.033,25.966 24.717,25.966Z" fill="#898C90"/>
<path d="M25,37.916L15,37.916C5.95,37.916 2.083,34.05 2.083,25L2.083,15C2.083,5.95 5.95,2.083 15,2.083L25,2.083C34.05,2.083 37.917,5.95 37.917,15L37.917,25C37.917,34.05 34.05,37.916 25,37.916ZM15,4.583C7.317,4.583 4.583,7.316 4.583,15L4.583,25C4.583,32.683 7.317,35.416 15,35.416L25,35.416C32.683,35.416 35.417,32.683 35.417,25L35.417,15C35.417,7.316 32.683,4.583 25,4.583L15,4.583Z" fill="#898C90"/>
</svg>
