<svg width="48" height="48" viewBox="0 0 48 48" fill="none" xmlns="http://www.w3.org/2000/svg" xmlns:xlink="http://www.w3.org/1999/xlink">
<path d="M24,24.5C23.12,24.5 22.24,24.28 21.44,23.86L8.42,16.84C7.24,16.2 6.5,14.94 6.5,13.54C6.5,12.14 7.24,10.88 8.42,10.24L21.44,3.22C23.04,2.36 24.96,2.36 26.54,3.22L39.56,10.24C40.74,10.88 41.48,12.14 41.48,13.54C41.48,14.94 40.74,16.2 39.56,16.84L26.54,23.86C25.76,24.3 24.88,24.5 24,24.5ZM24,5.56C23.62,5.56 23.22,5.66 22.86,5.86L9.86,12.86C9.52,13.04 9.5,13.42 9.5,13.54C9.5,13.66 9.52,14.04 9.86,14.2L22.88,21.22C23.6,21.6 24.42,21.6 25.14,21.22L38.16,14.2C38.48,14.02 38.52,13.64 38.52,13.54C38.52,13.42 38.5,13.04 38.16,12.88L25.14,5.86C24.78,5.66 24.38,5.56 24,5.56Z" fill="#292D32"/>
<path d="M19.56,45.44C19,45.44 18.42,45.3 17.9,45.04L5.78,39C3.76,37.98 2.5,35.94 2.5,33.68L2.5,22.24C2.5,20.94 3.16,19.76 4.26,19.08C5.38,18.4 6.72,18.34 7.88,18.92L20,24.96C22.02,25.98 23.28,28 23.28,30.28L23.28,41.72C23.28,43.02 22.62,44.2 21.52,44.88C20.92,45.26 20.24,45.44 19.56,45.44ZM6.22,21.52C6.06,21.52 5.92,21.58 5.84,21.62C5.72,21.7 5.5,21.88 5.5,22.24L5.5,33.68C5.5,34.8 6.12,35.82 7.12,36.32L19.22,42.38C19.54,42.54 19.8,42.42 19.92,42.36C20.04,42.28 20.26,42.1 20.26,41.74L20.26,30.3C20.26,29.18 19.64,28.16 18.64,27.66L6.54,21.6C6.42,21.54 6.32,21.52 6.22,21.52Z" fill="#292D32"/>
<path d="M28.44,45.44C27.76,45.44 27.08,45.26 26.48,44.88C25.38,44.2 24.72,43.02 24.72,41.72L24.72,30.28C24.72,28.02 25.98,25.98 28,24.96L40.1,18.9C41.26,18.32 42.62,18.38 43.72,19.06C44.82,19.74 45.48,20.92 45.48,22.22L45.48,33.66C45.48,35.92 44.22,37.96 42.2,38.98L30.1,45.04C29.58,45.32 29,45.44 28.44,45.44ZM41.78,21.52C41.68,21.52 41.58,21.54 41.46,21.6L29.36,27.66C28.36,28.16 27.74,29.16 27.74,30.3L27.74,41.74C27.74,42.1 27.96,42.28 28.08,42.36C28.2,42.44 28.46,42.54 28.78,42.38L40.88,36.32C41.88,35.82 42.5,34.8 42.5,33.68L42.5,22.24C42.5,21.88 42.28,21.7 42.16,21.62C42.08,21.58 41.94,21.52 41.78,21.52Z" fill="#292D32"/>
</svg>
