<svg width="48" height="48" viewBox="0 0 48 48" fill="none" xmlns="http://www.w3.org/2000/svg" xmlns:xlink="http://www.w3.org/1999/xlink">
<path d="M39.54,27.5L31.46,27.5C27.44,27.5 25.5,25.64 25.5,21.8L25.5,8.2C25.5,4.36 27.46,2.5 31.46,2.5L39.54,2.5C43.56,2.5 45.5,4.36 45.5,8.2L45.5,21.8C45.5,25.64 43.54,27.5 39.54,27.5ZM31.46,5.5C28.92,5.5 28.5,6.18 28.5,8.2L28.5,21.8C28.5,23.82 28.92,24.5 31.46,24.5L39.54,24.5C42.08,24.5 42.5,23.82 42.5,21.8L42.5,8.2C42.5,6.18 42.08,5.5 39.54,5.5L31.46,5.5L31.46,5.5Z" fill="#292D32"/>
<path d="M39.54,45.5L31.46,45.5C27.44,45.5 25.5,43.64 25.5,39.8L25.5,36.2C25.5,32.36 27.46,30.5 31.46,30.5L39.54,30.5C43.56,30.5 45.5,32.36 45.5,36.2L45.5,39.8C45.5,43.64 43.54,45.5 39.54,45.5ZM31.46,33.5C28.92,33.5 28.5,34.18 28.5,36.2L28.5,39.8C28.5,41.82 28.92,42.5 31.46,42.5L39.54,42.5C42.08,42.5 42.5,41.82 42.5,39.8L42.5,36.2C42.5,34.18 42.08,33.5 39.54,33.5L31.46,33.5Z" fill="#292D32"/>
<path d="M16.54,45.5L8.46,45.5C4.44,45.5 2.5,43.64 2.5,39.8L2.5,26.2C2.5,22.36 4.46,20.5 8.46,20.5L16.54,20.5C20.56,20.5 22.5,22.36 22.5,26.2L22.5,39.8C22.5,43.64 20.54,45.5 16.54,45.5ZM8.46,23.5C5.92,23.5 5.5,24.18 5.5,26.2L5.5,39.8C5.5,41.82 5.92,42.5 8.46,42.5L16.54,42.5C19.08,42.5 19.5,41.82 19.5,39.8L19.5,26.2C19.5,24.18 19.08,23.5 16.54,23.5L8.46,23.5L8.46,23.5Z" fill="#292D32"/>
<path d="M16.54,17.5L8.46,17.5C4.44,17.5 2.5,15.64 2.5,11.8L2.5,8.2C2.5,4.36 4.46,2.5 8.46,2.5L16.54,2.5C20.56,2.5 22.5,4.36 22.5,8.2L22.5,11.8C22.5,15.64 20.54,17.5 16.54,17.5ZM8.46,5.5C5.92,5.5 5.5,6.18 5.5,8.2L5.5,11.8C5.5,13.82 5.92,14.5 8.46,14.5L16.54,14.5C19.08,14.5 19.5,13.82 19.5,11.8L19.5,8.2C19.5,6.18 19.08,5.5 16.54,5.5L8.46,5.5L8.46,5.5Z" fill="#292D32"/>
</svg>
