<svg width="50" height="50" viewBox="0 0 50 50" fill="none" xmlns="http://www.w3.org/2000/svg" xmlns:xlink="http://www.w3.org/1999/xlink">
<path d="M31.25,47.396L18.75,47.396C7.438,47.396 2.604,42.563 2.604,31.25L2.604,18.75C2.604,7.438 7.438,2.604 18.75,2.604L31.25,2.604C42.563,2.604 47.396,7.438 47.396,18.75L47.396,31.25C47.396,42.563 42.563,47.396 31.25,47.396ZM18.75,5.729C9.146,5.729 5.729,9.146 5.729,18.75L5.729,31.25C5.729,40.854 9.146,44.271 18.75,44.271L31.25,44.271C40.854,44.271 44.271,40.854 44.271,31.25L44.271,18.75C44.271,9.146 40.854,5.729 31.25,5.729L18.75,5.729Z" fill="#292D32"/>
<path d="M18.75,22.396C15.583,22.396 13.021,19.833 13.021,16.667C13.021,13.5 15.583,10.938 18.75,10.938C21.916,10.938 24.479,13.5 24.479,16.667C24.479,19.833 21.916,22.396 18.75,22.396ZM18.75,14.063C17.312,14.063 16.146,15.229 16.146,16.667C16.146,18.104 17.312,19.271 18.75,19.271C20.187,19.271 21.354,18.104 21.354,16.667C21.354,15.229 20.187,14.063 18.75,14.063Z" fill="#292D32"/>
<path d="M5.563,41.042C5.063,41.042 4.563,40.792 4.271,40.354C3.792,39.646 3.98,38.667 4.709,38.188L14.98,31.292C17.23,29.771 20.334,29.959 22.375,31.688L23.063,32.292C24.105,33.188 25.875,33.188 26.896,32.292L35.563,24.854C37.771,22.959 41.25,22.959 43.48,24.854L46.875,27.771C47.521,28.334 47.605,29.313 47.042,29.979C46.48,30.625 45.5,30.709 44.834,30.146L41.438,27.229C40.396,26.334 38.625,26.334 37.584,27.229L28.917,34.667C26.709,36.563 23.23,36.563 21,34.667L20.313,34.063C19.355,33.25 17.771,33.167 16.709,33.896L6.438,40.792C6.167,40.959 5.855,41.042 5.563,41.042Z" fill="#292D32"/>
</svg>
