<svg width="40" height="40" viewBox="0 0 40 40" fill="none" xmlns="http://www.w3.org/2000/svg" xmlns:xlink="http://www.w3.org/1999/xlink">
<path d="M25,37.916L15,37.916C5.95,37.916 2.083,34.05 2.083,25L2.083,15C2.083,5.95 5.95,2.083 15,2.083L25,2.083C34.05,2.083 37.917,5.95 37.917,15L37.917,25C37.917,34.05 34.05,37.916 25,37.916ZM15,4.583C7.317,4.583 4.583,7.316 4.583,15L4.583,25C4.583,32.683 7.317,35.416 15,35.416L25,35.416C32.683,35.416 35.417,32.683 35.417,25L35.417,15C35.417,7.316 32.683,4.583 25,4.583L15,4.583Z" fill="#292D32"/>
<path d="M15,17.917C12.467,17.917 10.417,15.867 10.417,13.333C10.417,10.8 12.467,8.75 15,8.75C17.533,8.75 19.583,10.8 19.583,13.333C19.583,15.867 17.533,17.917 15,17.917ZM15,11.25C13.85,11.25 12.917,12.183 12.917,13.333C12.917,14.483 13.85,15.417 15,15.417C16.15,15.417 17.083,14.483 17.083,13.333C17.083,12.183 16.15,11.25 15,11.25Z" fill="#292D32"/>
<path d="M4.45,32.834C4.05,32.834 3.65,32.634 3.417,32.284C3.033,31.717 3.183,30.934 3.767,30.55L11.983,25.034C13.783,23.817 16.267,23.967 17.9,25.35L18.45,25.834C19.283,26.55 20.7,26.55 21.517,25.834L28.45,19.884C30.217,18.367 33,18.367 34.783,19.884L37.5,22.217C38.017,22.667 38.083,23.45 37.633,23.984C37.183,24.5 36.4,24.567 35.867,24.117L33.15,21.784C32.317,21.067 30.9,21.067 30.067,21.784L23.133,27.734C21.367,29.25 18.583,29.25 16.8,27.734L16.25,27.25C15.483,26.6 14.217,26.534 13.367,27.117L5.15,32.634C4.933,32.767 4.683,32.834 4.45,32.834Z" fill="#292D32"/>
</svg>
