<svg width="100" height="100" viewBox="0 0 100 100" fill="none" xmlns="http://www.w3.org/2000/svg" xmlns:xlink="http://www.w3.org/1999/xlink">
<path d="M62.5,94.792L37.5,94.792C14.875,94.792 5.208,85.125 5.208,62.5L5.208,37.5C5.208,14.875 14.875,5.208 37.5,5.208L62.5,5.208C85.125,5.208 94.791,14.875 94.791,37.5L94.791,62.5C94.791,85.125 85.125,94.792 62.5,94.792ZM37.5,11.458C18.291,11.458 11.458,18.292 11.458,37.5L11.458,62.5C11.458,81.708 18.291,88.542 37.5,88.542L62.5,88.542C81.708,88.542 88.541,81.708 88.541,62.5L88.541,37.5C88.541,18.292 81.708,11.458 62.5,11.458L37.5,11.458Z" fill="#292D32"/>
<path d="M37.5,44.792C31.167,44.792 26.042,39.667 26.042,33.333C26.042,27 31.167,21.875 37.5,21.875C43.834,21.875 48.959,27 48.959,33.333C48.959,39.667 43.834,44.792 37.5,44.792ZM37.5,28.125C34.625,28.125 32.292,30.458 32.292,33.333C32.292,36.208 34.625,38.542 37.5,38.542C40.375,38.542 42.709,36.208 42.709,33.333C42.709,30.458 40.375,28.125 37.5,28.125Z" fill="#292D32"/>
<path d="M11.125,82.084C10.125,82.084 9.125,81.584 8.542,80.709C7.583,79.292 7.958,77.334 9.417,76.375L29.958,62.584C34.458,59.542 40.666,59.917 44.75,63.375L46.125,64.583C48.208,66.375 51.75,66.375 53.791,64.583L71.125,49.709C75.541,45.917 82.5,45.917 86.958,49.709L93.75,55.542C95.041,56.667 95.208,58.625 94.083,59.959C92.958,61.25 91,61.417 89.666,60.292L82.875,54.458C80.791,52.667 77.25,52.667 75.166,54.458L57.833,69.334C53.416,73.125 46.458,73.125 42,69.334L40.625,68.125C38.708,66.5 35.541,66.334 33.416,67.792L12.875,81.584C12.333,81.917 11.708,82.084 11.125,82.084Z" fill="#292D32"/>
</svg>
