<svg width="100" height="100" viewBox="0 0 100 100" fill="none" xmlns="http://www.w3.org/2000/svg" xmlns:xlink="http://www.w3.org/1999/xlink">
<path d="M62.5,94.791L37.5,94.791C14.875,94.791 5.208,85.125 5.208,62.5L5.208,37.5C5.208,14.875 14.875,5.208 37.5,5.208L62.5,5.208C85.125,5.208 94.791,14.875 94.791,37.5L94.791,62.5C94.791,85.125 85.125,94.791 62.5,94.791ZM37.5,11.458C18.291,11.458 11.458,18.291 11.458,37.5L11.458,62.5C11.458,81.708 18.291,88.541 37.5,88.541L62.5,88.541C81.708,88.541 88.541,81.708 88.541,62.5L88.541,37.5C88.541,18.291 81.708,11.458 62.5,11.458L37.5,11.458Z" fill="#292D32"/>
<path d="M37.5,44.792C31.167,44.792 26.042,39.667 26.042,33.333C26.042,27 31.167,21.875 37.5,21.875C43.834,21.875 48.959,27 48.959,33.333C48.959,39.667 43.834,44.792 37.5,44.792ZM37.5,28.125C34.625,28.125 32.292,30.458 32.292,33.333C32.292,36.208 34.625,38.542 37.5,38.542C40.375,38.542 42.709,36.208 42.709,33.333C42.709,30.458 40.375,28.125 37.5,28.125Z" fill="#292D32"/>
<path d="M11.125,82.083C10.125,82.083 9.125,81.583 8.542,80.708C7.583,79.291 7.958,77.333 9.417,76.375L29.958,62.583C34.458,59.541 40.666,59.916 44.75,63.375L46.125,64.583C48.208,66.375 51.75,66.375 53.791,64.583L71.125,49.708C75.541,45.916 82.5,45.916 86.958,49.708L93.75,55.541C95.041,56.666 95.208,58.625 94.083,59.958C92.958,61.25 91,61.416 89.666,60.291L82.875,54.458C80.791,52.666 77.25,52.666 75.166,54.458L57.833,69.333C53.416,73.125 46.458,73.125 42,69.333L40.625,68.125C38.708,66.5 35.541,66.333 33.416,67.791L12.875,81.583C12.333,81.916 11.708,82.083 11.125,82.083Z" fill="#292D32"/>
</svg>
