<svg width="140" height="140" viewBox="0 0 140 140" fill="none" xmlns="http://www.w3.org/2000/svg" xmlns:xlink="http://www.w3.org/1999/xlink">
<path d="M87.5,132.709L52.5,132.709C20.825,132.709 7.292,119.175 7.292,87.5L7.292,52.5C7.292,20.825 20.825,7.292 52.5,7.292L87.5,7.292C119.175,7.292 132.709,20.825 132.709,52.5L132.709,87.5C132.709,119.175 119.175,132.709 87.5,132.709ZM52.5,16.042C25.609,16.042 16.042,25.609 16.042,52.5L16.042,87.5C16.042,114.392 25.609,123.959 52.5,123.959L87.5,123.959C114.392,123.959 123.959,114.392 123.959,87.5L123.959,52.5C123.959,25.609 114.392,16.042 87.5,16.042L52.5,16.042Z" fill="#292D32"/>
<path d="M52.5,62.708C43.633,62.708 36.458,55.533 36.458,46.667C36.458,37.8 43.633,30.625 52.5,30.625C61.366,30.625 68.541,37.8 68.541,46.667C68.541,55.533 61.366,62.708 52.5,62.708ZM52.5,39.375C48.475,39.375 45.208,42.642 45.208,46.667C45.208,50.692 48.475,53.958 52.5,53.958C56.525,53.958 59.791,50.692 59.791,46.667C59.791,42.642 56.525,39.375 52.5,39.375Z" fill="#292D32"/>
<path d="M15.575,114.917C14.175,114.917 12.775,114.217 11.958,112.992C10.616,111.008 11.141,108.267 13.183,106.925L41.941,87.617C48.241,83.358 56.933,83.883 62.65,88.725L64.575,90.417C67.491,92.925 72.45,92.925 75.308,90.417L99.575,69.592C105.758,64.283 115.5,64.283 121.741,69.592L131.25,77.758C133.058,79.333 133.291,82.075 131.716,83.942C130.141,85.75 127.4,85.983 125.533,84.408L116.025,76.242C113.108,73.733 108.15,73.733 105.233,76.242L80.967,97.067C74.783,102.375 65.041,102.375 58.8,97.067L56.875,95.375C54.191,93.1 49.758,92.867 46.783,94.908L18.025,114.217C17.266,114.683 16.391,114.917 15.575,114.917Z" fill="#292D32"/>
</svg>
