<svg width="40" height="40" viewBox="0 0 40 40" fill="none" xmlns="http://www.w3.org/2000/svg" xmlns:xlink="http://www.w3.org/1999/xlink">
<path d="M19.999,37.934C18.183,37.934 16.383,37.4 14.966,36.35L7.799,31C5.899,29.584 4.416,26.617 4.416,24.267L4.416,11.867C4.416,9.3 6.299,6.567 8.716,5.667L17.033,2.55C18.683,1.934 21.283,1.934 22.933,2.55L31.249,5.667C33.666,6.567 35.549,9.3 35.549,11.867L35.549,24.25C35.549,26.617 34.066,29.567 32.166,30.984L24.999,36.334C23.616,37.4 21.816,37.934 19.999,37.934ZM17.916,4.9L9.599,8.017C8.183,8.55 6.933,10.35 6.933,11.884L6.933,24.267C6.933,25.85 8.049,28.067 9.299,29L16.466,34.35C18.383,35.784 21.616,35.784 23.549,34.35L30.716,29C31.983,28.05 33.083,25.85 33.083,24.267L33.083,11.867C33.083,10.35 31.833,8.55 30.416,8L22.099,4.884C20.966,4.484 19.033,4.484 17.916,4.9Z" fill="#292D32"/>
<path d="M17.767,23.716C17.45,23.716 17.134,23.6 16.884,23.35L14.2,20.666C13.717,20.183 13.717,19.383 14.2,18.9C14.684,18.416 15.484,18.416 15.967,18.9L17.767,20.7L24.05,14.416C24.534,13.933 25.334,13.933 25.817,14.416C26.3,14.9 26.3,15.7 25.817,16.183L18.65,23.35C18.4,23.6 18.084,23.716 17.767,23.716Z" fill="#292D32"/>
</svg>
