<svg width="36" height="28" viewBox="0 0 36 28" fill="none" xmlns="http://www.w3.org/2000/svg" xmlns:xlink="http://www.w3.org/1999/xlink">
<path d="M18,25.234C16.365,25.234 14.745,24.879 13.47,24.181L7.02,20.622C5.31,19.679 3.975,17.706 3.975,16.143L3.975,7.894C3.975,6.187 5.67,4.368 7.845,3.77L15.33,1.696C16.815,1.286 19.155,1.286 20.64,1.696L28.125,3.77C30.3,4.368 31.995,6.187 31.995,7.894L31.995,16.132C31.995,17.706 30.66,19.668 28.95,20.611L22.5,24.17C21.255,24.879 19.635,25.234 18,25.234ZM16.125,3.26L8.64,5.333C7.365,5.688 6.24,6.885 6.24,7.905L6.24,16.143C6.24,17.196 7.245,18.67 8.37,19.291L14.82,22.85C16.545,23.804 19.455,23.804 21.195,22.85L27.645,19.291C28.785,18.659 29.775,17.196 29.775,16.143L29.775,7.894C29.775,6.885 28.65,5.688 27.375,5.322L19.89,3.249C18.87,2.982 17.13,2.982 16.125,3.26Z" fill="#595454"/>
<path d="M15.99,15.777C15.705,15.777 15.42,15.699 15.195,15.533L12.78,13.748C12.345,13.426 12.345,12.894 12.78,12.573C13.215,12.251 13.935,12.251 14.37,12.573L15.99,13.77L21.645,9.59C22.08,9.269 22.8,9.269 23.235,9.59C23.67,9.912 23.67,10.444 23.235,10.765L16.785,15.533C16.56,15.699 16.275,15.777 15.99,15.777Z" fill="#595454"/>
</svg>
