<svg width="36" height="26" viewBox="0 0 36 26" fill="none" xmlns="http://www.w3.org/2000/svg" xmlns:xlink="http://www.w3.org/1999/xlink">
<path d="M18,24.451C16.365,24.451 14.745,24.096 13.47,23.398L7.02,19.839C5.31,18.897 3.975,16.923 3.975,15.36L3.975,7.111C3.975,5.404 5.67,3.586 7.845,2.987L15.33,0.914C16.815,0.503 19.155,0.503 20.64,0.914L28.125,2.987C30.3,3.586 31.995,5.404 31.995,7.111L31.995,15.349C31.995,16.923 30.66,18.886 28.95,19.828L22.5,23.387C21.255,24.096 19.635,24.451 18,24.451ZM16.125,2.477L8.64,4.55C7.365,4.905 6.24,6.102 6.24,7.122L6.24,15.36C6.24,16.413 7.245,17.888 8.37,18.509L14.82,22.068C16.545,23.021 19.455,23.021 21.195,22.068L27.645,18.509C28.785,17.877 29.775,16.413 29.775,15.36L29.775,7.111C29.775,6.102 28.65,4.905 27.375,4.539L19.89,2.466C18.87,2.2 17.13,2.2 16.125,2.477Z" fill="#595454"/>
<path d="M15.99,14.994C15.705,14.994 15.42,14.916 15.195,14.75L12.78,12.965C12.345,12.644 12.345,12.111 12.78,11.79C13.215,11.468 13.935,11.468 14.37,11.79L15.99,12.987L21.645,8.808C22.08,8.486 22.8,8.486 23.235,8.808C23.67,9.129 23.67,9.661 23.235,9.983L16.785,14.75C16.56,14.916 16.275,14.994 15.99,14.994Z" fill="#595454"/>
</svg>
