<svg width="36" height="36" viewBox="0 0 36 36" fill="none" xmlns="http://www.w3.org/2000/svg" xmlns:xlink="http://www.w3.org/1999/xlink">
<path d="M18,34.14C16.365,34.14 14.745,33.66 13.47,32.715L7.02,27.9C5.31,26.625 3.975,23.955 3.975,21.84L3.975,10.68C3.975,8.37 5.67,5.91 7.845,5.1L15.33,2.295C16.815,1.74 19.155,1.74 20.64,2.295L28.125,5.1C30.3,5.91 31.995,8.37 31.995,10.68L31.995,21.825C31.995,23.955 30.66,26.61 28.95,27.885L22.5,32.7C21.255,33.66 19.635,34.14 18,34.14ZM16.125,4.41L8.64,7.215C7.365,7.695 6.24,9.315 6.24,10.695L6.24,21.84C6.24,23.265 7.245,25.26 8.37,26.1L14.82,30.915C16.545,32.205 19.455,32.205 21.195,30.915L27.645,26.1C28.785,25.245 29.775,23.265 29.775,21.84L29.775,10.68C29.775,9.315 28.65,7.695 27.375,7.2L19.89,4.395C18.87,4.035 17.13,4.035 16.125,4.41Z" fill="#595454"/>
<path d="M15.99,21.345C15.705,21.345 15.42,21.24 15.195,21.015L12.78,18.6C12.345,18.165 12.345,17.445 12.78,17.01C13.215,16.575 13.935,16.575 14.37,17.01L15.99,18.63L21.645,12.975C22.08,12.54 22.8,12.54 23.235,12.975C23.67,13.41 23.67,14.13 23.235,14.565L16.785,21.015C16.56,21.24 16.275,21.345 15.99,21.345Z" fill="#595454"/>
</svg>
