<svg width="48" height="48" viewBox="0 0 48 48" fill="none" xmlns="http://www.w3.org/2000/svg" xmlns:xlink="http://www.w3.org/1999/xlink">
<path d="M24,37.5C23.18,37.5 22.5,36.82 22.5,36L22.5,30C22.5,29.18 23.18,28.5 24,28.5C24.82,28.5 25.5,29.18 25.5,30L25.5,36C25.5,36.82 24.82,37.5 24,37.5Z" fill="#292D32"/>
<path d="M35.2,45.12L12.8,45.12C9.16,45.12 5.84,42.32 5.24,38.74L2.58,22.8C2.14,20.32 3.36,17.14 5.34,15.56L19.2,4.46C21.88,2.3 26.1,2.32 28.8,4.48L42.66,15.56C44.62,17.14 45.82,20.32 45.42,22.8L42.76,38.72C42.16,42.26 38.76,45.12 35.2,45.12ZM23.98,5.86C22.92,5.86 21.86,6.18 21.08,6.8L7.22,17.92C6.1,18.82 5.3,20.9 5.54,22.32L8.2,38.24C8.56,40.34 10.66,42.12 12.8,42.12L35.2,42.12C37.34,42.12 39.44,40.34 39.8,38.22L42.46,22.3C42.68,20.9 41.88,18.78 40.78,17.9L26.92,6.82C26.12,6.18 25.04,5.86 23.98,5.86Z" fill="#292D32"/>
</svg>
