<svg width="40" height="40" viewBox="0 0 40 40" fill="none" xmlns="http://www.w3.org/2000/svg" xmlns:xlink="http://www.w3.org/1999/xlink">
<path d="M25,37.916L15,37.916C5.95,37.916 2.083,34.05 2.083,25L2.083,15C2.083,5.95 5.95,2.083 15,2.083L25,2.083C34.05,2.083 37.917,5.95 37.917,15L37.917,25C37.917,34.05 34.05,37.916 25,37.916ZM15,4.583C7.317,4.583 4.583,7.316 4.583,15L4.583,25C4.583,32.683 7.317,35.416 15,35.416L25,35.416C32.683,35.416 35.417,32.683 35.417,25L35.417,15C35.417,7.316 32.683,4.583 25,4.583L15,4.583Z" fill="#292D32"/>
<path d="M14.683,30.417C14.567,30.417 14.433,30.417 14.317,30.383L12.333,30.117C11.133,29.95 10.083,28.917 9.9,27.683L9.617,25.667C9.5,24.867 9.833,23.85 10.417,23.25L14.217,19.45C13.65,16.75 14.467,13.95 16.45,11.983C19.633,8.8 24.833,8.8 28.017,11.983C29.567,13.533 30.417,15.583 30.417,17.767C30.417,19.95 29.567,22.017 28.017,23.55C26.033,25.517 23.233,26.333 20.55,25.767L16.733,29.567C16.25,30.083 15.433,30.417 14.683,30.417ZM22.233,12.083C20.783,12.083 19.317,12.633 18.217,13.75C16.717,15.25 16.183,17.433 16.8,19.467C16.933,19.917 16.817,20.383 16.483,20.717L12.183,25.017C12.15,25.067 12.083,25.25 12.083,25.317L12.367,27.317C12.383,27.417 12.567,27.6 12.667,27.617L14.667,27.9C14.75,27.883 14.917,27.85 14.967,27.8L19.283,23.483C19.617,23.15 20.1,23.05 20.533,23.183C22.55,23.817 24.733,23.283 26.233,21.783C27.3,20.717 27.9,19.283 27.9,17.767C27.9,16.25 27.317,14.817 26.233,13.75C25.15,12.65 23.683,12.083 22.233,12.083Z" fill="#292D32"/>
<path d="M17.417,28.383C17.1,28.383 16.783,28.267 16.533,28.017L15.1,26.583C14.617,26.1 14.617,25.3 15.1,24.817C15.583,24.333 16.383,24.333 16.867,24.817L18.3,26.25C18.783,26.733 18.783,27.533 18.3,28.017C18.067,28.267 17.75,28.383 17.417,28.383Z" fill="#292D32"/>
<path d="M22.3,19.667C22.067,19.667 21.85,19.633 21.65,19.55C21.45,19.467 21.267,19.333 21.117,19.183C20.8,18.867 20.617,18.45 20.617,18C20.617,17.567 20.8,17.133 21.117,16.833C21.5,16.433 22.083,16.25 22.617,16.367C22.717,16.4 22.833,16.417 22.933,16.467C23.033,16.517 23.133,16.567 23.217,16.617C23.3,16.683 23.4,16.75 23.467,16.833C23.783,17.133 23.967,17.567 23.967,18C23.967,18.233 23.917,18.433 23.833,18.65C23.75,18.85 23.633,19.033 23.467,19.183C23.15,19.5 22.733,19.667 22.3,19.667Z" fill="#292D32"/>
</svg>
