<svg width="120" height="120" viewBox="0 0 120 120" fill="none" xmlns="http://www.w3.org/2000/svg" xmlns:xlink="http://www.w3.org/1999/xlink">
<path d="M58.95,58.85C56.25,58.85 53.5,58.35 51.35,57.4L21.85,44.3C14.35,40.95 13.25,36.45 13.25,34C13.25,31.55 14.35,27.05 21.85,23.7L51.35,10.6C55.7,8.65 62.25,8.65 66.6,10.6L96.15,23.7C103.6,27 104.75,31.55 104.75,34C104.75,36.45 103.65,40.95 96.15,44.3L66.6,57.4C64.4,58.4 61.7,58.85 58.95,58.85ZM58.95,16.65C57.25,16.65 55.6,16.9 54.4,17.45L24.9,30.55C21.85,31.95 20.75,33.35 20.75,34C20.75,34.65 21.85,36.1 24.85,37.45L54.35,50.55C56.75,51.6 61.1,51.6 63.5,50.55L93.05,37.45C96.1,36.1 97.2,34.65 97.2,34C97.2,33.35 96.1,31.9 93.05,30.55L63.55,17.45C62.35,16.95 60.65,16.65 58.95,16.65Z" fill="#292D32"/>
<path d="M60,84.9C58.1,84.9 56.2,84.5 54.4,83.7L20.45,68.6C15.3,66.35 11.25,60.1 11.25,54.45C11.25,52.4 12.95,50.7 15,50.7C17.05,50.7 18.75,52.4 18.75,54.45C18.75,57.2 21,60.65 23.5,61.8L57.45,76.9C59.05,77.6 60.9,77.6 62.55,76.9L96.5,61.8C99,60.7 101.25,57.2 101.25,54.45C101.25,52.4 102.95,50.7 105,50.7C107.05,50.7 108.75,52.4 108.75,54.45C108.75,60.1 104.7,66.35 99.55,68.65L65.6,83.75C63.8,84.5 61.9,84.9 60,84.9Z" fill="#292D32"/>
<path d="M60,109.9C58.1,109.9 56.2,109.5 54.4,108.7L20.45,93.6C14.85,91.1 11.25,85.55 11.25,79.4C11.25,77.35 12.95,75.65 15,75.65C17.05,75.65 18.75,77.4 18.75,79.45C18.75,82.6 20.6,85.5 23.5,86.8L57.45,101.9C59.05,102.6 60.9,102.6 62.55,101.9L96.5,86.8C99.4,85.5 101.25,82.65 101.25,79.45C101.25,77.4 102.95,75.7 105,75.7C107.05,75.7 108.75,77.4 108.75,79.45C108.75,85.6 105.15,91.15 99.55,93.65L65.6,108.75C63.8,109.5 61.9,109.9 60,109.9Z" fill="#292D32"/>
</svg>
