<svg width="100" height="100" viewBox="0 0 100 100" fill="none" xmlns="http://www.w3.org/2000/svg" xmlns:xlink="http://www.w3.org/1999/xlink">
<path d="M49.125,48.95C46.875,48.95 44.584,48.534 42.792,47.742L18.209,36.825C11.959,34.034 11.042,30.284 11.042,28.242C11.042,26.201 11.959,22.451 18.209,19.659L42.792,8.742C46.417,7.117 51.875,7.117 55.5,8.742L80.125,19.659C86.334,22.409 87.292,26.201 87.292,28.242C87.292,30.284 86.375,34.034 80.125,36.825L55.5,47.742C53.667,48.575 51.417,48.95 49.125,48.95ZM49.125,13.784C47.709,13.784 46.334,13.992 45.334,14.451L20.75,25.367C18.209,26.534 17.292,27.7 17.292,28.242C17.292,28.784 18.209,29.992 20.709,31.117L45.292,42.034C47.292,42.909 50.917,42.909 52.917,42.034L77.542,31.117C80.084,29.992 81,28.784 81,28.242C81,27.7 80.084,26.492 77.542,25.367L52.959,14.451C51.959,14.034 50.542,13.784 49.125,13.784Z" fill="#292D32"/>
<path d="M50,70.658C48.417,70.658 46.833,70.325 45.333,69.658L17.042,57.075C12.75,55.2 9.375,49.992 9.375,45.283C9.375,43.575 10.792,42.158 12.5,42.158C14.208,42.158 15.625,43.575 15.625,45.283C15.625,47.575 17.5,50.45 19.583,51.408L47.875,63.992C49.208,64.575 50.75,64.575 52.125,63.992L80.417,51.408C82.5,50.492 84.375,47.575 84.375,45.283C84.375,43.575 85.792,42.158 87.5,42.158C89.208,42.158 90.625,43.575 90.625,45.283C90.625,49.992 87.25,55.2 82.958,57.117L54.667,69.7C53.167,70.325 51.583,70.658 50,70.658Z" fill="#292D32"/>
<path d="M50,91.492C48.417,91.492 46.833,91.159 45.333,90.492L17.042,77.909C12.375,75.825 9.375,71.2 9.375,66.075C9.375,64.367 10.792,62.95 12.5,62.95C14.208,62.95 15.625,64.409 15.625,66.117C15.625,68.742 17.167,71.159 19.583,72.242L47.875,84.825C49.208,85.409 50.75,85.409 52.125,84.825L80.417,72.242C82.833,71.159 84.375,68.784 84.375,66.117C84.375,64.409 85.792,62.992 87.5,62.992C89.208,62.992 90.625,64.409 90.625,66.117C90.625,71.242 87.625,75.867 82.958,77.95L54.667,90.534C53.167,91.159 51.583,91.492 50,91.492Z" fill="#292D32"/>
</svg>
