<svg width="48" height="44" viewBox="0 0 48 44" fill="none" xmlns="http://www.w3.org/2000/svg" xmlns:xlink="http://www.w3.org/1999/xlink">
<path d="M23.58,21.429C22.5,21.429 21.4,21.254 20.54,20.923L8.74,16.355C5.74,15.187 5.3,13.618 5.3,12.764C5.3,11.91 5.74,10.34 8.74,9.172L20.54,4.605C22.28,3.925 24.9,3.925 26.64,4.605L38.46,9.172C41.44,10.323 41.9,11.91 41.9,12.764C41.9,13.618 41.46,15.187 38.46,16.355L26.64,20.923C25.76,21.272 24.68,21.429 23.58,21.429ZM23.58,6.714C22.9,6.714 22.24,6.801 21.76,6.993L9.96,11.561C8.74,12.049 8.3,12.537 8.3,12.764C8.3,12.99 8.74,13.496 9.94,13.967L21.74,18.534C22.7,18.901 24.44,18.901 25.4,18.534L37.22,13.967C38.44,13.496 38.88,12.99 38.88,12.764C38.88,12.537 38.44,12.032 37.22,11.561L25.42,6.993C24.94,6.819 24.26,6.714 23.58,6.714Z" fill="#292D32"/>
<path d="M24,30.512C23.24,30.512 22.48,30.372 21.76,30.093L8.18,24.828C6.12,24.044 4.5,21.865 4.5,19.894C4.5,19.18 5.18,18.587 6,18.587C6.82,18.587 7.5,19.18 7.5,19.894C7.5,20.853 8.4,22.056 9.4,22.457L22.98,27.722C23.62,27.966 24.36,27.966 25.02,27.722L38.6,22.457C39.6,22.074 40.5,20.853 40.5,19.894C40.5,19.18 41.18,18.587 42,18.587C42.82,18.587 43.5,19.18 43.5,19.894C43.5,21.865 41.88,24.044 39.82,24.846L26.24,30.111C25.52,30.372 24.76,30.512 24,30.512Z" fill="#292D32"/>
<path d="M24,39.228C23.24,39.228 22.48,39.089 21.76,38.81L8.18,33.545C5.94,32.673 4.5,30.738 4.5,28.594C4.5,27.879 5.18,27.286 6,27.286C6.82,27.286 7.5,27.896 7.5,28.611C7.5,29.709 8.24,30.721 9.4,31.174L22.98,36.439C23.62,36.683 24.36,36.683 25.02,36.439L38.6,31.174C39.76,30.721 40.5,29.727 40.5,28.611C40.5,27.896 41.18,27.304 42,27.304C42.82,27.304 43.5,27.896 43.5,28.611C43.5,30.756 42.06,32.691 39.82,33.562L26.24,38.827C25.52,39.089 24.76,39.228 24,39.228Z" fill="#292D32"/>
</svg>
