<svg width="40" height="40" viewBox="0 0 40 40" fill="none" xmlns="http://www.w3.org/2000/svg" xmlns:xlink="http://www.w3.org/1999/xlink">
<path d="M29.233,15.1C26.283,15.1 23.883,12.7 23.883,9.75C23.883,6.8 26.283,4.4 29.233,4.4C32.183,4.4 34.583,6.8 34.583,9.75C34.583,12.7 32.183,15.1 29.233,15.1ZM29.233,6.884C27.667,6.884 26.383,8.167 26.383,9.734C26.383,11.3 27.667,12.584 29.233,12.584C30.8,12.584 32.083,11.3 32.083,9.734C32.083,8.167 30.8,6.884 29.233,6.884Z" fill="#898C90"/>
<path d="M10.767,15.1C7.817,15.1 5.417,12.7 5.417,9.75C5.417,6.8 7.817,4.4 10.767,4.4C13.717,4.4 16.117,6.8 16.117,9.75C16.117,12.7 13.717,15.1 10.767,15.1ZM10.767,6.884C9.2,6.884 7.917,8.167 7.917,9.734C7.917,11.3 9.2,12.584 10.767,12.584C12.333,12.584 13.617,11.3 13.617,9.734C13.617,8.167 12.35,6.884 10.767,6.884Z" fill="#898C90"/>
<path d="M29.233,35.617C26.283,35.617 23.883,33.217 23.883,30.267C23.883,27.317 26.283,24.917 29.233,24.917C32.183,24.917 34.583,27.317 34.583,30.267C34.583,33.217 32.183,35.617 29.233,35.617ZM29.233,27.4C27.667,27.4 26.383,28.684 26.383,30.25C26.383,31.817 27.667,33.1 29.233,33.1C30.8,33.1 32.083,31.817 32.083,30.25C32.083,28.684 30.8,27.4 29.233,27.4Z" fill="#898C90"/>
<path d="M10.767,35.617C7.817,35.617 5.417,33.217 5.417,30.267C5.417,27.317 7.817,24.917 10.767,24.917C13.717,24.917 16.117,27.317 16.117,30.267C16.117,33.217 13.717,35.617 10.767,35.617ZM10.767,27.4C9.2,27.4 7.917,28.684 7.917,30.25C7.917,31.817 9.2,33.1 10.767,33.1C12.333,33.1 13.617,31.817 13.617,30.25C13.617,28.684 12.35,27.4 10.767,27.4Z" fill="#898C90"/>
</svg>
