<svg width="48" height="48" viewBox="0 0 48 48" fill="none" xmlns="http://www.w3.org/2000/svg" xmlns:xlink="http://www.w3.org/1999/xlink">
<path d="M24.04,41.06C19.38,41.06 14.72,40.32 10.3,38.84C8.62,38.26 7.34,37.08 6.78,35.54C6.2,34 6.4,32.3 7.32,30.78L9.62,26.96C10.1,26.16 10.54,24.56 10.54,23.62L10.54,17.84C10.54,10.4 16.6,4.34 24.04,4.34C31.48,4.34 37.54,10.4 37.54,17.84L37.54,23.62C37.54,24.54 37.98,26.16 38.46,26.98L40.74,30.78C41.6,32.22 41.76,33.96 41.18,35.54C40.6,37.12 39.34,38.32 37.76,38.84C33.36,40.32 28.7,41.06 24.04,41.06ZM24.04,7.34C18.26,7.34 13.54,12.04 13.54,17.84L13.54,23.62C13.54,25.08 12.94,27.24 12.2,28.5L9.9,32.32C9.46,33.06 9.34,33.84 9.6,34.5C9.84,35.18 10.44,35.7 11.26,35.98C19.62,38.78 28.48,38.78 36.84,35.98C37.56,35.74 38.12,35.2 38.38,34.48C38.64,33.76 38.58,32.98 38.18,32.32L35.88,28.5C35.12,27.2 34.54,25.06 34.54,23.6L34.54,17.84C34.54,12.04 29.84,7.34 24.04,7.34Z" fill="#292D32"/>
<path d="M27.76,7.88C27.62,7.88 27.48,7.86 27.34,7.82C26.76,7.66 26.2,7.54 25.66,7.46C23.96,7.24 22.32,7.36 20.78,7.82C20.22,8 19.62,7.82 19.24,7.4C18.86,6.98 18.74,6.38 18.96,5.84C19.78,3.74 21.78,2.36 24.06,2.36C26.34,2.36 28.34,3.72 29.16,5.84C29.36,6.38 29.26,6.98 28.88,7.4C28.58,7.72 28.16,7.88 27.76,7.88Z" fill="#292D32"/>
<path d="M24.04,45.62C22.06,45.62 20.14,44.82 18.74,43.42C17.34,42.02 16.54,40.1 16.54,38.12L19.54,38.12C19.54,39.3 20.02,40.46 20.86,41.3C21.7,42.14 22.86,42.62 24.04,42.62C26.52,42.62 28.54,40.6 28.54,38.12L31.54,38.12C31.54,42.26 28.18,45.62 24.04,45.62Z" fill="#292D32"/>
</svg>
