<svg width="36" height="26" viewBox="0 0 36 26" fill="none" xmlns="http://www.w3.org/2000/svg" xmlns:xlink="http://www.w3.org/1999/xlink">
<path d="M22.5,24.44L13.5,24.44C5.355,24.44 1.875,21.868 1.875,15.848L1.875,9.195C1.875,3.175 5.355,0.603 13.5,0.603L22.5,0.603C30.645,0.603 34.125,3.175 34.125,9.195L34.125,15.848C34.125,21.868 30.645,24.44 22.5,24.44ZM13.5,2.266C6.585,2.266 4.125,4.084 4.125,9.195L4.125,15.848C4.125,20.959 6.585,22.777 13.5,22.777L22.5,22.777C29.415,22.777 31.875,20.959 31.875,15.848L31.875,9.195C31.875,4.084 29.415,2.266 22.5,2.266L13.5,2.266Z" fill="#595454"/>
<path d="M25.5,13.176L21.48,13.176C19.845,13.176 18.57,12.234 18.57,11.025L18.57,9.373C18.57,8.165 19.845,7.222 21.48,7.222L23.715,7.222C25.32,7.222 26.625,8.187 26.625,9.373L26.625,12.333C26.625,12.799 26.115,13.176 25.5,13.176ZM21.48,8.885C21,8.885 20.82,9.151 20.82,9.373L20.82,11.025C20.82,11.247 20.985,11.513 21.48,11.513L24.375,11.513L24.375,9.384C24.375,9.118 24.075,8.896 23.715,8.896L21.48,8.896L21.48,8.885Z" fill="#595454"/>
<path d="M22.365,17.821C21.975,17.821 21.6,17.677 21.39,17.411C21.075,17.012 21.255,16.502 21.78,16.269C23.82,15.371 24.375,15.138 24.375,12.344C24.375,11.89 24.885,11.513 25.5,11.513C26.115,11.513 26.625,11.89 26.625,12.344C26.625,15.759 25.62,16.524 22.935,17.699C22.755,17.777 22.56,17.821 22.365,17.821Z" fill="#595454"/>
<path d="M16.29,13.176L12.27,13.176C10.635,13.176 9.36,12.234 9.36,11.025L9.36,9.373C9.36,8.165 10.635,7.222 12.27,7.222L14.505,7.222C16.11,7.222 17.415,8.187 17.415,9.373L17.415,12.333C17.415,12.799 16.92,13.176 16.29,13.176ZM12.285,8.885C11.805,8.885 11.625,9.151 11.625,9.373L11.625,11.025C11.625,11.247 11.79,11.513 12.285,11.513L15.18,11.513L15.18,9.384C15.18,9.118 14.88,8.896 14.52,8.896L12.285,8.896L12.285,8.885Z" fill="#595454"/>
<path d="M13.155,17.821C12.765,17.821 12.39,17.677 12.18,17.411C11.865,17.012 12.045,16.502 12.57,16.269C14.61,15.371 15.165,15.138 15.165,12.344C15.165,11.89 15.675,11.513 16.29,11.513C16.905,11.513 17.415,11.89 17.415,12.344C17.415,15.759 16.41,16.524 13.725,17.699C13.545,17.777 13.35,17.821 13.155,17.821Z" fill="#595454"/>
</svg>
