<svg width="48" height="44" viewBox="0 0 48 44" fill="none" xmlns="http://www.w3.org/2000/svg" xmlns:xlink="http://www.w3.org/1999/xlink">
<path d="M38,40.38C37.18,40.38 36.5,39.787 36.5,39.072L36.5,19.894C36.5,19.18 37.18,18.587 38,18.587C38.82,18.587 39.5,19.18 39.5,19.894L39.5,39.072C39.5,39.787 38.82,40.38 38,40.38Z" fill="#292D32"/>
<path d="M38,14.229C37.18,14.229 36.5,13.636 36.5,12.921L36.5,4.204C36.5,3.489 37.18,2.896 38,2.896C38.82,2.896 39.5,3.489 39.5,4.204L39.5,12.921C39.5,13.636 38.82,14.229 38,14.229Z" fill="#292D32"/>
<path d="M24,40.379C23.18,40.379 22.5,39.786 22.5,39.071L22.5,30.354C22.5,29.64 23.18,29.047 24,29.047C24.82,29.047 25.5,29.64 25.5,30.354L25.5,39.071C25.5,39.786 24.82,40.379 24,40.379Z" fill="#292D32"/>
<path d="M24,24.689C23.18,24.689 22.5,24.096 22.5,23.381L22.5,4.204C22.5,3.489 23.18,2.896 24,2.896C24.82,2.896 25.5,3.489 25.5,4.204L25.5,23.381C25.5,24.096 24.82,24.689 24,24.689Z" fill="#292D32"/>
<path d="M10,40.38C9.18,40.38 8.5,39.787 8.5,39.072L8.5,19.894C8.5,19.18 9.18,18.587 10,18.587C10.82,18.587 11.5,19.18 11.5,19.894L11.5,39.072C11.5,39.787 10.82,40.38 10,40.38Z" fill="#292D32"/>
<path d="M10,14.229C9.18,14.229 8.5,13.636 8.5,12.921L8.5,4.204C8.5,3.489 9.18,2.896 10,2.896C10.82,2.896 11.5,3.489 11.5,4.204L11.5,12.921C11.5,13.636 10.82,14.229 10,14.229Z" fill="#292D32"/>
<path d="M14,21.202L6,21.202C5.18,21.202 4.5,20.609 4.5,19.894C4.5,19.18 5.18,18.587 6,18.587L14,18.587C14.82,18.587 15.5,19.18 15.5,19.894C15.5,20.609 14.82,21.202 14,21.202Z" fill="#292D32"/>
<path d="M42,21.202L34,21.202C33.18,21.202 32.5,20.609 32.5,19.894C32.5,19.18 33.18,18.587 34,18.587L42,18.587C42.82,18.587 43.5,19.18 43.5,19.894C43.5,20.609 42.82,21.202 42,21.202Z" fill="#292D32"/>
<path d="M28,24.688L20,24.688C19.18,24.688 18.5,24.096 18.5,23.381C18.5,22.666 19.18,22.073 20,22.073L28,22.073C28.82,22.073 29.5,22.666 29.5,23.381C29.5,24.096 28.82,24.688 28,24.688Z" fill="#292D32"/>
</svg>
