<svg width="36" height="28" viewBox="0 0 36 28" fill="none" xmlns="http://www.w3.org/2000/svg" xmlns:xlink="http://www.w3.org/1999/xlink">
<path d="M25.5,23.038L10.5,23.038C5.025,23.038 1.875,20.71 1.875,16.663L1.875,8.902C1.875,4.856 5.025,2.527 10.5,2.527L25.5,2.527C30.975,2.527 34.125,4.856 34.125,8.902L34.125,16.663C34.125,20.71 30.975,23.038 25.5,23.038ZM10.5,4.19C6.21,4.19 4.125,5.731 4.125,8.902L4.125,16.663C4.125,19.834 6.21,21.375 10.5,21.375L25.5,21.375C29.79,21.375 31.875,19.834 31.875,16.663L31.875,8.902C31.875,5.731 29.79,4.19 25.5,4.19L10.5,4.19Z" fill="#595454"/>
<path d="M18,13.747C16.74,13.747 15.465,13.459 14.49,12.871L9.795,10.1C9.315,9.811 9.225,9.29 9.615,8.936C10.005,8.581 10.71,8.514 11.19,8.803L15.885,11.574C17.025,12.251 18.96,12.251 20.1,11.574L24.795,8.803C25.275,8.514 25.995,8.57 26.37,8.936C26.76,9.29 26.685,9.823 26.19,10.1L21.495,12.871C20.535,13.459 19.26,13.747 18,13.747Z" fill="#595454"/>
</svg>
