<svg width="40" height="40" viewBox="0 0 40 40" fill="none" xmlns="http://www.w3.org/2000/svg" xmlns:xlink="http://www.w3.org/1999/xlink">
<path d="M35.55,13.2C34.867,13.2 34.3,12.633 34.3,11.95L34.3,8.917C34.3,7.7 33.317,6.717 32.1,6.717L7.9,6.717C6.683,6.717 5.7,7.7 5.7,8.917L5.7,11.967C5.7,12.65 5.133,13.217 4.45,13.217C3.767,13.217 3.2,12.65 3.2,11.95L3.2,8.917C3.2,6.317 5.317,4.217 7.9,4.217L32.1,4.217C34.7,4.217 36.8,6.333 36.8,8.917L36.8,11.967C36.8,12.65 36.25,13.2 35.55,13.2Z" fill="#292D32"/>
<path d="M20,35.783C19.317,35.783 18.75,35.216 18.75,34.533L18.75,6.85C18.75,6.166 19.317,5.6 20,5.6C20.683,5.6 21.25,6.166 21.25,6.85L21.25,34.533C21.25,35.233 20.683,35.783 20,35.783Z" fill="#292D32"/>
<path d="M26.567,35.783L13.433,35.783C12.75,35.783 12.183,35.217 12.183,34.533C12.183,33.85 12.75,33.283 13.433,33.283L26.567,33.283C27.25,33.283 27.817,33.85 27.817,34.533C27.817,35.217 27.25,35.783 26.567,35.783Z" fill="#292D32"/>
</svg>
