<svg width="36" height="36" viewBox="0 0 36 36" fill="none" xmlns="http://www.w3.org/2000/svg" xmlns:xlink="http://www.w3.org/1999/xlink">
<path d="M31.995,11.88C31.38,11.88 30.87,11.37 30.87,10.755L30.87,8.025C30.87,6.93 29.985,6.045 28.89,6.045L7.11,6.045C6.015,6.045 5.13,6.93 5.13,8.025L5.13,10.77C5.13,11.385 4.62,11.895 4.005,11.895C3.39,11.895 2.88,11.385 2.88,10.755L2.88,8.025C2.88,5.685 4.785,3.795 7.11,3.795L28.89,3.795C31.23,3.795 33.12,5.7 33.12,8.025L33.12,10.77C33.12,11.385 32.625,11.88 31.995,11.88Z" fill="#595454"/>
<path d="M18,32.205C17.385,32.205 16.875,31.695 16.875,31.08L16.875,6.165C16.875,5.55 17.385,5.04 18,5.04C18.615,5.04 19.125,5.55 19.125,6.165L19.125,31.08C19.125,31.71 18.615,32.205 18,32.205Z" fill="#595454"/>
<path d="M23.91,32.205L12.09,32.205C11.475,32.205 10.965,31.695 10.965,31.08C10.965,30.465 11.475,29.955 12.09,29.955L23.91,29.955C24.525,29.955 25.035,30.465 25.035,31.08C25.035,31.695 24.525,32.205 23.91,32.205Z" fill="#595454"/>
</svg>
