<svg width="44" height="44" viewBox="0 0 44 44" fill="none" xmlns="http://www.w3.org/2000/svg" xmlns:xlink="http://www.w3.org/1999/xlink">
<path d="M32,43.5L12,43.5C3.18,43.5 0.5,40.82 0.5,32L0.5,12C0.5,3.18 3.18,0.5 12,0.5L15,0.5C18.5,0.5 19.6,1.64 21,3.5L24,7.5C24.66,8.38 24.76,8.5 26,8.5L32,8.5C40.82,8.5 43.5,11.18 43.5,20L43.5,32C43.5,40.82 40.82,43.5 32,43.5ZM12,3.5C4.86,3.5 3.5,4.86 3.5,12L3.5,32C3.5,39.14 4.86,40.5 12,40.5L32,40.5C39.14,40.5 40.5,39.14 40.5,32L40.5,20C40.5,12.86 39.14,11.5 32,11.5L26,11.5C23.44,11.5 22.6,10.62 21.6,9.3L18.6,5.3C17.56,3.92 17.26,3.5 15,3.5L12,3.5L12,3.5Z" fill="#292D32"/>
</svg>
