<svg width="44" height="44" viewBox="0 0 44 44" fill="none" xmlns="http://www.w3.org/2000/svg" xmlns:xlink="http://www.w3.org/1999/xlink">
<path d="M22.92,43.5C22.58,43.5 22.24,43.5 21.9,43.48C10.7,42.98 1.34,33.96 0.56,22.96C-0.12,13.52 5.34,4.7 14.14,1C16.64,-0.04 17.96,0.76 18.52,1.34C19.08,1.9 19.86,3.2 18.82,5.58C17.9,7.7 17.44,9.96 17.46,12.28C17.5,21.14 24.86,28.66 33.84,29.02C35.14,29.08 36.42,28.98 37.66,28.76C40.3,28.28 41.4,29.34 41.82,30.02C42.24,30.7 42.72,32.16 41.12,34.32C36.88,40.12 30.14,43.5 22.92,43.5ZM3.54,22.74C4.22,32.26 12.34,40.06 22.02,40.48C28.6,40.8 34.84,37.8 38.68,32.56C38.98,32.14 39.12,31.84 39.18,31.68C39,31.66 38.68,31.64 38.18,31.74C36.72,32 35.2,32.1 33.7,32.04C23.14,31.62 14.5,22.76 14.44,12.32C14.44,9.56 14.98,6.9 16.08,4.4C16.28,3.96 16.32,3.66 16.34,3.5C16.16,3.5 15.84,3.54 15.32,3.76C7.7,6.96 2.98,14.6 3.54,22.74Z" fill="#292D32"/>
</svg>
